<?xml version="1.0" standalone="no"?><!-- Generator: Gravit.io --><svg xmlns="http://www.w3.org/2000/svg" xmlns:xlink="http://www.w3.org/1999/xlink" style="isolation:isolate" viewBox="0 0 159.017 159.017" width="159.017" height="159.017"><path d=" M 10.557 3.009 C 6.385 3.009 3.009 6.385 3.009 10.557 L 3.009 68.46 C 3.009 72.632 6.385 76.009 10.557 76.009 L 68.46 76.009 C 72.632 76.009 76.009 72.632 76.009 68.46 L 76.009 10.557 C 76.009 6.385 72.632 3.009 68.46 3.009 L 10.557 3.009 Z " fill="none" vector-effect="non-scaling-stroke" stroke-width="1.557" stroke="rgb(65,64,66)" stroke-linejoin="miter" stroke-linecap="butt" stroke-miterlimit="3.8636"/><path d=" M 24.485 62.009 L 24.485 66.509 C 24.485 69.009 22.488 71.009 19.993 71.009 C 17.497 71.009 15.501 69.009 15.501 66.509 L 15.501 62.009 L 11.009 62.009 L 11.009 47.309 L 11.009 47.309 C 11.009 44.109 13.205 41.409 16.1 40.609 L 21.39 28.109 C 22.189 26.309 23.986 25.009 26.082 25.009 L 52.935 25.009 C 55.031 25.009 56.828 26.309 57.627 28.109 L 62.918 40.609 C 65.912 41.409 68.009 44.109 68.009 47.309 L 68.009 47.309 L 68.009 62.009 L 63.417 62.009 L 63.417 66.509 C 63.417 69.009 61.42 71.009 58.925 71.009 C 56.429 71.009 54.432 69.009 54.432 66.509 L 54.432 62.009 L 24.485 62.009 Z  M 20.292 53.909 C 22.788 53.909 24.884 51.809 24.884 49.309 C 24.884 46.809 22.788 44.809 20.292 44.809 C 17.797 44.809 15.7 46.809 15.7 49.309 C 15.7 51.809 17.797 53.909 20.292 53.909 Z  M 62.918 49.309 C 62.918 46.809 60.921 44.809 58.326 44.809 C 55.83 44.809 53.734 46.809 53.734 49.309 C 53.734 51.809 55.83 53.909 58.326 53.909 C 60.821 53.909 62.918 51.809 62.918 49.309 Z  M 58.326 40.309 L 53.833 29.509 C 53.634 29.009 53.135 28.609 52.536 28.609 L 26.382 28.609 C 25.783 28.609 25.284 29.009 25.084 29.509 L 20.592 40.309 L 58.326 40.309 Z " fill="rgb(65,64,66)"/><path d=" M 90.557 3.009 C 86.385 3.009 83.009 6.385 83.009 10.557 L 83.009 68.46 C 83.009 72.632 86.385 76.009 90.557 76.009 L 148.46 76.009 C 152.632 76.009 156.009 72.632 156.009 68.46 L 156.009 10.557 C 156.009 6.385 152.632 3.009 148.46 3.009 L 90.557 3.009 Z " fill="none" vector-effect="non-scaling-stroke" stroke-width="1.557" stroke="rgb(65,64,66)" stroke-linejoin="miter" stroke-linecap="butt" stroke-miterlimit="3.8636"/><path d=" M 140.799 23.283 C 140.196 20.192 138.188 18.996 135.175 17.7 C 132.161 16.504 125.231 15.009 120.009 15.009 C 114.786 15.009 107.755 16.504 104.843 17.7 C 101.83 18.896 99.821 20.192 99.218 23.283 L 97.009 40.429 L 97.009 63.956 L 100.825 63.956 L 100.825 67.644 C 100.825 72.13 107.454 72.13 107.454 67.644 L 107.454 63.956 L 132.563 63.956 L 132.563 67.644 C 132.563 72.13 139.192 72.13 139.192 67.644 L 139.192 63.956 L 143.009 63.956 L 143.009 40.429 L 140.799 23.283 Z  M 109.563 18.797 L 130.354 18.797 C 132.362 18.797 132.362 22.685 130.354 22.685 L 109.563 22.685 C 107.554 22.685 107.554 18.797 109.563 18.797 Z  M 104.14 56.878 C 102.231 56.878 100.624 55.283 100.624 53.389 C 100.624 51.495 102.231 49.9 104.14 49.9 C 106.048 49.9 107.655 51.495 107.655 53.389 C 107.655 55.382 106.048 56.878 104.14 56.878 Z  M 135.878 56.878 C 133.969 56.878 132.362 55.283 132.362 53.389 C 132.362 51.495 133.969 49.9 135.878 49.9 C 137.786 49.9 139.393 51.495 139.393 53.389 C 139.292 55.382 137.786 56.878 135.878 56.878 Z  M 137.183 42.224 L 102.733 42.224 C 101.729 42.224 100.926 41.426 100.926 40.429 C 100.926 40.23 100.926 40.13 101.026 39.931 L 102.834 26.473 C 103.035 25.675 103.738 24.977 104.642 24.977 L 135.375 24.977 C 136.279 24.977 136.982 25.675 137.183 26.473 L 138.991 39.931 C 138.991 40.13 139.092 40.23 139.092 40.429 C 139.092 41.426 138.188 42.224 137.183 42.224 Z " fill="rgb(65,64,66)"/><path d=" M 90.557 83.009 C 86.385 83.009 83.009 86.385 83.009 90.557 L 83.009 148.46 C 83.009 152.632 86.385 156.009 90.557 156.009 L 148.46 156.009 C 152.632 156.009 156.009 152.632 156.009 148.46 L 156.009 90.557 C 156.009 86.385 152.632 83.009 148.46 83.009 L 90.557 83.009 Z " fill="none" vector-effect="non-scaling-stroke" stroke-width="1.557" stroke="rgb(65,64,66)" stroke-linejoin="miter" stroke-linecap="butt" stroke-miterlimit="3.8636"/><path d=" M 130.407 126.695 C 132.488 126.695 134.172 128.39 134.172 130.483 C 134.172 132.577 132.488 134.271 130.407 134.271 C 128.327 134.271 126.642 132.577 126.642 130.483 C 126.543 128.49 128.228 126.695 130.407 126.695 Z  M 108.709 126.695 C 110.79 126.695 112.474 128.39 112.474 130.483 C 112.474 132.577 110.79 134.271 108.709 134.271 C 106.628 134.271 104.944 132.577 104.944 130.483 C 104.845 128.49 106.628 126.695 108.709 126.695 Z  M 109.204 99.781 L 119.608 99.781 L 119.608 99.781 L 130.011 99.781 C 132.884 99.781 134.371 101.774 134.371 104.167 L 134.371 109.749 C 134.371 112.441 132.389 114.135 130.011 114.135 L 119.608 114.135 L 119.608 114.135 L 119.608 114.135 L 109.204 114.135 C 106.826 114.135 104.845 112.441 104.845 109.749 L 104.845 104.167 C 104.845 101.774 106.331 99.781 109.204 99.781 Z  M 115.347 92.803 L 119.509 92.803 L 119.509 92.803 L 119.509 92.803 L 123.67 92.803 C 124.463 92.803 125.057 93.401 125.057 94.198 L 125.057 96.691 C 125.057 97.488 124.463 98.086 123.67 98.086 L 119.509 98.086 L 119.509 98.086 L 119.509 98.086 L 115.347 98.086 C 114.555 98.086 113.96 97.388 113.96 96.691 L 113.96 94.198 C 113.96 93.401 114.555 92.803 115.347 92.803 Z  M 119.608 91.009 L 108.907 91.009 C 103.854 91.009 100.188 95.096 100.188 99.482 L 100.188 130.683 C 100.188 134.969 103.557 138.458 106.826 138.956 L 96.819 154.009 L 102.566 154.009 L 109.7 143.442 L 119.509 143.442 L 119.509 143.442 L 119.509 143.442 L 129.317 143.442 L 136.451 154.009 L 142.198 154.009 L 132.29 138.956 C 135.659 138.458 138.928 134.869 138.928 130.683 L 138.928 99.482 C 138.928 95.096 135.262 91.009 130.209 91.009 L 119.608 91.009 Z " fill="rgb(65,64,66)"/><ellipse vector-effect="non-scaling-stroke" cx="0" cy="0" rx="1" ry="1" transform="matrix(2.466,0,0,2.5,116.056,87.509)" fill="rgb(65,64,66)"/><ellipse vector-effect="non-scaling-stroke" cx="0" cy="0" rx="1" ry="1" transform="matrix(2.466,0,0,2.5,122.961,87.509)" fill="rgb(65,64,66)"/><path d=" M 10.557 83.009 C 6.385 83.009 3.009 86.385 3.009 90.557 L 3.009 148.46 C 3.009 152.632 6.385 156.009 10.557 156.009 L 68.46 156.009 C 72.632 156.009 76.009 152.632 76.009 148.46 L 76.009 90.557 C 76.009 86.385 72.632 83.009 68.46 83.009 L 10.557 83.009 Z " fill="none" vector-effect="non-scaling-stroke" stroke-width="1.557" stroke="rgb(65,64,66)" stroke-linejoin="miter" stroke-linecap="butt" stroke-miterlimit="3.8636"/><path d=" M 35.977 92.373 C 35.977 87.87 42.742 87.87 42.742 92.473 L 42.742 111.385 L 69.009 127.295 L 69.009 134.299 L 42.842 125.594 L 42.842 139.702 L 48.911 144.505 L 48.911 150.009 L 39.558 147.107 L 30.206 150.009 L 30.206 144.505 L 36.176 139.702 L 36.176 125.594 L 10.009 134.299 L 10.009 127.295 L 35.977 111.385 L 35.977 92.373 L 35.977 92.373 Z " fill="rgb(65,64,66)"/></svg>