<?xml version="1.0" encoding="UTF-8"?>
<!DOCTYPE svg PUBLIC "-//W3C//DTD SVG 1.1//EN" "http://www.w3.org/Graphics/SVG/1.1/DTD/svg11.dtd">
<svg version="1.1" width="106.05mm" height="106.03mm" viewBox="0 0 10605 10603" preserveAspectRatio="xMidYMid" fill-rule="evenodd" clip-path="url(#presentation_clip_path)" stroke-width="28.222" stroke-linejoin="round" xmlns="http://www.w3.org/2000/svg" xmlns:ooo="http://xml.openoffice.org/svg/export" xmlns:xlink="http://www.w3.org/1999/xlink" xml:space="preserve">
 <defs class="ClipPathGroup">
  <clipPath id="presentation_clip_path" clipPathUnits="userSpaceOnUse">
   <rect x="0" y="0" width="10605" height="10603"/>
  </clipPath>
 </defs>
 <defs class="TextShapeIndex">
  
 </defs>
 <defs class="EmbeddedBulletChars">
  <g id="bullet-char-template57356" transform="scale(0.00048828125,-0.00048828125)">
   <path d="M 580,1141 L 1163,571 580,0 -4,571 580,1141 Z"/>
  </g>
  <g id="bullet-char-template57354" transform="scale(0.00048828125,-0.00048828125)">
   <path d="M 8,1128 L 1137,1128 1137,0 8,0 8,1128 Z"/>
  </g>
  <g id="bullet-char-template10146" transform="scale(0.00048828125,-0.00048828125)">
   <path d="M 174,0 L 602,739 174,1481 1456,739 174,0 Z M 1358,739 L 309,1346 659,739 1358,739 Z"/>
  </g>
  <g id="bullet-char-template10132" transform="scale(0.00048828125,-0.00048828125)">
   <path d="M 2015,739 L 1276,0 717,0 1260,543 174,543 174,936 1260,936 717,1481 1274,1481 2015,739 Z"/>
  </g>
  <g id="bullet-char-template10007" transform="scale(0.00048828125,-0.00048828125)">
   <path d="M 0,-2 C -7,14 -16,27 -25,37 L 356,567 C 262,823 215,952 215,954 215,979 228,992 255,992 264,992 276,990 289,987 310,991 331,999 354,1012 L 381,999 492,748 772,1049 836,1024 860,1049 C 881,1039 901,1025 922,1006 886,937 835,863 770,784 769,783 710,716 594,584 L 774,223 C 774,196 753,168 711,139 L 727,119 C 717,90 699,76 672,76 641,76 570,178 457,381 L 164,-76 C 142,-110 111,-127 72,-127 30,-127 9,-110 8,-76 1,-67 -2,-52 -2,-32 -2,-23 -1,-13 0,-2 Z"/>
  </g>
  <g id="bullet-char-template10004" transform="scale(0.00048828125,-0.00048828125)">
   <path d="M 285,-33 C 182,-33 111,30 74,156 52,228 41,333 41,471 41,549 55,616 82,672 116,743 169,778 240,778 293,778 328,747 346,684 L 369,508 C 377,444 397,411 428,410 L 1163,1116 C 1174,1127 1196,1133 1229,1133 1271,1133 1292,1118 1292,1087 L 1292,965 C 1292,929 1282,901 1262,881 L 442,47 C 390,-6 338,-33 285,-33 Z"/>
  </g>
  <g id="bullet-char-template9679" transform="scale(0.00048828125,-0.00048828125)">
   <path d="M 813,0 C 632,0 489,54 383,161 276,268 223,411 223,592 223,773 276,916 383,1023 489,1130 632,1184 813,1184 992,1184 1136,1130 1245,1023 1353,916 1407,772 1407,592 1407,412 1353,268 1245,161 1136,54 992,0 813,0 Z"/>
  </g>
  <g id="bullet-char-template8226" transform="scale(0.00048828125,-0.00048828125)">
   <path d="M 346,457 C 273,457 209,483 155,535 101,586 74,649 74,723 74,796 101,859 155,911 209,963 273,989 346,989 419,989 480,963 531,910 582,859 608,796 608,723 608,648 583,586 532,535 482,483 420,457 346,457 Z"/>
  </g>
  <g id="bullet-char-template8211" transform="scale(0.00048828125,-0.00048828125)">
   <path d="M -4,459 L 1135,459 1135,606 -4,606 -4,459 Z"/>
  </g>
 </defs>
 <defs class="TextEmbeddedBitmaps"/>
 <g>
  <g id="id2" class="Master_Slide">
   <g id="bg-id2" class="Background"/>
   <g id="bo-id2" class="BackgroundObjects"/>
  </g>
 </g>
 <g class="SlideGroup">
  <g>
   <g id="id1" class="Slide" clip-path="url(#presentation_clip_path)">
    <g class="Page">
     <g class="Group">
      <g class="com.sun.star.drawing.EllipseShape">
       <g id="id3">
        <path fill="rgb(255,255,255)" stroke="none" d="M 9046,9044 C 8357,9733 7615,10162 6674,10414 5733,10666 4875,10666 3934,10414 2993,10162 2251,9733 1562,9044 873,8355 444,7613 192,6672 -60,5731 -60,4873 192,3932 444,2991 873,2249 1562,1560 2251,871 2993,442 3934,190 4875,-62 5733,-62 6674,190 7615,442 8357,871 9046,1560 9735,2249 10164,2991 10416,3932 10668,4873 10668,5731 10416,6672 10164,7613 9735,8355 9046,9044 L 9046,9044 Z"/>
       </g>
      </g>
      <g class="com.sun.star.drawing.EllipseShape">
       <g id="id4">
        <path fill="rgb(255,255,0)" stroke="none" d="M 5304,5302 L 3934,190 C 4875,-62 5733,-62 6674,190 L 5304,5302 Z"/>
       </g>
      </g>
      <g class="com.sun.star.drawing.EllipseShape">
       <g id="id5">
        <path fill="rgb(0,0,255)" stroke="none" d="M 5304,5302 L 6674,10414 C 5733,10666 4875,10666 3934,10414 L 5304,5302 Z"/>
       </g>
      </g>
      <g class="com.sun.star.drawing.EllipseShape">
       <g id="id6">
        <path fill="rgb(255,128,0)" stroke="none" d="M 5304,5302 L 6674,190 C 7615,442 8357,871 9046,1560 L 9046,1560 5304,5302 Z"/>
       </g>
      </g>
      <g class="com.sun.star.drawing.EllipseShape">
       <g id="id7">
        <path fill="rgb(0,127,255)" stroke="none" d="M 5304,5302 L 3934,10414 C 2993,10162 2251,9733 1562,9044 L 5304,5302 Z"/>
       </g>
      </g>
      <g class="com.sun.star.drawing.EllipseShape">
       <g id="id8">
        <path fill="rgb(255,0,0)" stroke="none" d="M 5304,5302 L 9046,1560 C 9735,2249 10164,2991 10416,3932 L 5304,5302 Z"/>
       </g>
      </g>
      <g class="com.sun.star.drawing.EllipseShape">
       <g id="id9">
        <path fill="rgb(0,255,255)" stroke="none" d="M 5304,5302 L 1562,9044 1562,9044 C 873,8355 444,7613 192,6672 L 5304,5302 Z"/>
       </g>
      </g>
      <g class="com.sun.star.drawing.EllipseShape">
       <g id="id10">
        <path fill="rgb(255,0,127)" stroke="none" d="M 5304,5302 L 10416,3932 C 10668,4873 10668,5731 10416,6672 L 5304,5302 Z"/>
       </g>
      </g>
      <g class="com.sun.star.drawing.EllipseShape">
       <g id="id11">
        <path fill="rgb(0,255,128)" stroke="none" d="M 5304,5302 L 192,6672 C -60,5731 -60,4873 192,3932 L 5304,5302 Z"/>
       </g>
      </g>
      <g class="com.sun.star.drawing.EllipseShape">
       <g id="id12">
        <path fill="rgb(255,0,255)" stroke="none" d="M 5304,5302 L 10416,6672 C 10164,7613 9735,8355 9046,9044 L 5304,5302 Z"/>
       </g>
      </g>
      <g class="com.sun.star.drawing.EllipseShape">
       <g id="id13">
        <path fill="rgb(0,255,0)" stroke="none" d="M 5304,5302 L 192,3932 C 444,2991 873,2249 1562,1560 L 5304,5302 Z"/>
       </g>
      </g>
      <g class="com.sun.star.drawing.EllipseShape">
       <g id="id14">
        <path fill="rgb(128,0,255)" stroke="none" d="M 5304,5302 L 9046,9044 9046,9044 C 8357,9733 7615,10162 6674,10414 L 5304,5302 Z"/>
       </g>
      </g>
      <g class="com.sun.star.drawing.EllipseShape">
       <g id="id15">
        <path fill="rgb(127,255,0)" stroke="none" d="M 5304,5302 L 1562,1560 C 2251,871 2993,442 3934,190 L 5304,5302 Z"/>
       </g>
      </g>
      <g class="com.sun.star.drawing.EllipseShape">
       <g id="id16">
        <path fill="rgb(255,255,255)" stroke="none" d="M 6553,6550 C 6323,6779 6076,6922 5762,7006 5448,7090 5162,7090 4849,7006 4535,6922 4287,6779 4058,6550 3828,6320 3685,6072 3601,5759 3517,5445 3517,5159 3601,4845 3685,4532 3828,4284 4058,4054 4287,3825 4535,3682 4849,3598 5162,3514 5448,3514 5762,3598 6076,3682 6323,3825 6553,4054 6783,4284 6926,4532 7010,4845 7094,5159 7094,5445 7010,5759 6926,6072 6783,6320 6553,6550 L 6553,6550 Z"/>
       </g>
      </g>
     </g>
    </g>
   </g>
  </g>
 </g>
</svg>